<mxfile host="65bd71144e">
    <diagram id="DWApjFzHYURmReSud2fw" name="Page-1">
        <mxGraphModel dx="762" dy="414" grid="0" gridSize="10" guides="1" tooltips="1" connect="1" arrows="1" fold="1" page="1" pageScale="1" pageWidth="850" pageHeight="1100" background="none" math="0" shadow="0">
            <root>
                <mxCell id="0"/>
                <mxCell id="1" parent="0"/>
                <mxCell id="8" value="Client Application" style="ellipse;whiteSpace=wrap;html=1;aspect=fixed;dashed=1;rounded=0;" parent="1" vertex="1">
                    <mxGeometry x="440" y="160" width="80" height="80" as="geometry"/>
                </mxCell>
                <mxCell id="9" value="Web Server" style="ellipse;whiteSpace=wrap;html=1;aspect=fixed;rounded=0;" parent="1" vertex="1">
                    <mxGeometry x="272" y="160" width="80" height="80" as="geometry"/>
                </mxCell>
                <mxCell id="10" value="" style="shape=requiredInterface;html=1;verticalLabelPosition=bottom;dashed=1;strokeWidth=2;align=left;fillColor=#000000;direction=west;rounded=0;" parent="1" vertex="1">
                    <mxGeometry x="230" y="50" width="70" height="330" as="geometry"/>
                </mxCell>
                <mxCell id="11" value="Customer Database" style="shape=partialRectangle;whiteSpace=wrap;html=1;left=0;right=0;fillColor=none;dashed=1;rounded=0;" parent="1" vertex="1">
                    <mxGeometry x="70" y="160" width="120" height="80" as="geometry"/>
                </mxCell>
                <mxCell id="12" value="" style="shape=requiredInterface;html=1;verticalLabelPosition=bottom;dashed=1;strokeColor=#000000;strokeWidth=2;fillColor=none;fontColor=#FF3333;align=left;rounded=0;" vertex="1" parent="1">
                    <mxGeometry x="330" y="50" width="55" height="330" as="geometry"/>
                </mxCell>
                <mxCell id="13" value="Https" style="endArrow=classic;html=1;fontColor=#000000;exitX=0;exitY=0.5;exitDx=0;exitDy=0;strokeColor=#000000;fontSize=13;rounded=0;" edge="1" parent="1" source="8">
                    <mxGeometry width="50" height="50" relative="1" as="geometry">
                        <mxPoint x="425" y="199.5" as="sourcePoint"/>
                        <mxPoint x="355" y="199.5" as="targetPoint"/>
                        <Array as="points">
                            <mxPoint x="400" y="200"/>
                        </Array>
                    </mxGeometry>
                </mxCell>
                <mxCell id="15" value="Https" style="endArrow=classic;html=1;fontColor=#000000;exitX=0.429;exitY=0.547;exitDx=0;exitDy=0;exitPerimeter=0;fontSize=13;rounded=0;" edge="1" parent="1" source="10">
                    <mxGeometry width="50" height="50" relative="1" as="geometry">
                        <mxPoint x="230" y="200" as="sourcePoint"/>
                        <mxPoint x="190" y="200" as="targetPoint"/>
                    </mxGeometry>
                </mxCell>
            </root>
        </mxGraphModel>
    </diagram>
</mxfile>